<svg xmlns="http://www.w3.org/2000/svg" width="30" height="24" viewBox="0 0 30 24" fill="none">
  <g clip-path="url(#clip0_1279_95)">
    <path fill-rule="evenodd" clip-rule="evenodd" d="M15.9277 4.64165L22.7738 0.292236C22.7738 0.292236 27.8697 3.2182 29.5403 10.0181L22.2173 14.6053L15.9277 4.64165Z" fill="#FB0026"/>
    <path fill-rule="evenodd" clip-rule="evenodd" d="M13.2396 22.0958L5.20171 8.71523C5.15273 8.57432 5.01028 8.08678 5.32952 7.91093C5.43199 7.85456 5.6268 7.74297 5.88411 7.59417L14.5222 21.8873L14.275 22.0372C14.2474 22.0569 13.6208 22.483 13.2396 22.0958ZM6.8773 17.757L6.69938 17.9965C5.68423 19.3605 3.4563 20.5002 2.21875 21.0587C1.98678 21.1647 1.72046 21.0734 1.59997 20.8491L1.39615 20.4652C1.29368 20.2736 1.33366 20.0369 1.49356 19.8886C2.29701 19.1441 3.98386 17.8201 6.24389 17.3196L6.54624 17.2525L7.58842 15.2832L8.95659 17.5625L6.8773 17.757ZM13.7863 2.95436L22.2972 17.1663L15.6674 21.1918L7.04171 6.92063C9.12663 5.7015 12.4491 3.74288 13.7863 2.95436ZM14.2514 1.12256L13.6782 1.46074C13.5977 1.50865 5.575 6.24427 4.68315 6.73576C3.54413 7.36364 3.72543 8.66845 3.97992 9.27097L6.78215 13.9401L5.64932 16.083C3.23503 16.6968 1.45077 18.1014 0.583129 18.9045C-0.0232601 19.4659 -0.174717 20.3677 0.213778 21.0965L0.41816 21.4803C0.743031 22.0891 1.37307 22.4413 2.02619 22.4413C2.27561 22.4413 2.52898 22.39 2.76883 22.2818C4.33745 21.5745 6.40435 20.4511 7.58391 19.0381L9.72176 18.838L12.1254 22.8426L12.189 22.9311C12.6141 23.4316 13.1276 23.6013 13.6118 23.6013C14.1804 23.6013 14.7074 23.3679 15.0036 23.1628L24.1315 17.6212L14.2514 1.12256Z" fill="#005EB8"/>
  </g>
  <defs>
    <clipPath id="clip0_1279_95">
      <rect width="30" height="24" fill="white"/>
    </clipPath>
  </defs>
</svg>